<?xml version="1.0" standalone="no"?>
<!DOCTYPE svg PUBLIC "-//W3C//DTD SVG 20010904//EN"
 "http://www.w3.org/TR/2001/REC-SVG-20010904/DTD/svg10.dtd">
<svg version="1.0" xmlns="http://www.w3.org/2000/svg"
 width="256.000000pt" height="256.000000pt" viewBox="0 0 256.000000 256.000000"
 preserveAspectRatio="xMidYMid meet">

<g transform="translate(0.000000,256.000000) scale(0.100000,-0.100000)"
fill="#000000" stroke="none">
<path d="M1106 2549 c-481 -66 -887 -402 -1040 -861 -47 -139 -61 -232 -61
-403 0 -116 5 -184 18 -245 109 -515 492 -898 1007 -1007 118 -24 372 -24 490
0 515 109 898 492 1007 1007 24 118 24 372 0 490 -109 513 -494 900 -1002
1005 -96 20 -323 28 -419 14z m790 -821 c46 -25 113 -103 140 -163 100 -218
55 -567 -89 -690 -72 -62 -93 -65 -461 -64 -182 0 -325 3 -317 6 11 5 11 7 0
14 -11 7 -10 9 4 9 15 0 16 7 11 68 -4 37 -12 70 -18 74 -6 4 -39 8 -73 8 -70
0 -93 6 -93 26 0 11 -17 14 -69 14 -78 0 -93 -11 -62 -44 16 -16 21 -35 21
-72 0 -58 12 -74 54 -74 36 0 48 7 64 35 6 11 12 14 12 7 0 -7 -12 -24 -27
-39 l-28 -25 48 3 c26 2 47 1 47 -3 0 -5 -133 -8 -295 -8 l-295 0 0 140 0 139
177 148 c97 81 209 175 249 208 40 33 73 63 73 68 1 4 -86 7 -193 7 l-193 0 3
40 c3 38 2 40 -22 34 -18 -5 -24 -2 -24 10 0 9 -8 16 -17 16 -16 1 -16 2 1 15
11 8 14 15 7 15 -7 0 -9 5 -6 10 3 6 1 10 -6 10 -8 0 -8 4 1 15 11 13 10 14
-5 8 -14 -5 -17 -3 -12 10 7 20 -4 22 -21 5 -10 -10 -12 -7 -10 12 l3 25 315
5 c173 3 486 3 695 0 330 -4 384 -7 411 -22z m-1406 -126 c0 -5 17 -25 37 -45
l36 -37 -46 0 -47 0 0 45 c0 25 5 45 10 45 6 0 10 -4 10 -8z m597 -654 c-3 -8
-6 -5 -6 6 -1 11 2 17 5 13 3 -3 4 -12 1 -19z m73 -40 c-1 -56 -2 -61 -13 -40
-7 12 -16 19 -20 16 -4 -4 -7 0 -7 8 0 9 -3 30 -6 47 -6 28 -4 31 20 31 25 0
26 -2 26 -62z m-227 45 c-7 -2 -13 -12 -13 -20 0 -10 6 -13 16 -9 14 5 15 4 5
-8 -7 -8 -10 -20 -6 -26 9 -14 32 -13 38 3 3 7 6 5 6 -5 1 -14 -7 -18 -34 -18
-35 0 -35 0 -35 45 0 36 3 45 18 44 10 0 12 -3 5 -6z"/>
<path d="M1318 1433 c-58 -49 -174 -144 -258 -213 -84 -69 -169 -138 -187
-155 l-34 -30 210 3 211 3 0 79 0 80 125 0 125 0 0 -80 0 -81 142 3 142 3 20
35 c19 31 21 52 21 200 0 148 -2 169 -21 200 l-20 35 -185 3 -185 2 -106 -87z"/>
<path d="M730 1295 c-10 -11 -9 -18 4 -30 9 -9 16 -23 16 -30 0 -7 7 -21 16
-29 8 -9 12 -20 9 -26 -3 -5 -1 -10 5 -10 6 0 8 -4 5 -10 -3 -5 -1 -10 6 -10
7 0 9 -3 6 -6 -4 -4 3 -15 14 -25 12 -10 16 -20 9 -24 -12 -8 -13 -16 -1 -34
7 -11 17 -8 50 15 22 16 42 34 45 40 2 7 -31 48 -75 93 -43 45 -79 86 -79 91
0 15 -16 12 -30 -5z"/>
<path d="M510 980 c0 -5 16 -10 35 -10 19 0 35 -2 35 -5 0 -3 -16 -29 -35 -58
-19 -28 -35 -55 -35 -59 0 -5 25 -8 55 -8 41 0 55 4 55 14 0 10 -13 16 -35 18
l-35 3 35 52 c19 29 35 55 35 58 0 3 -25 5 -55 5 -30 0 -55 -4 -55 -10z"/>
<path d="M637 983 c-10 -9 -8 -131 2 -137 4 -3 28 -2 52 2 l44 7 3 54 c2 30
-2 59 -9 67 -12 14 -80 20 -92 7z m81 -65 c-3 -49 -5 -53 -30 -56 -28 -3 -28
-2 -28 52 0 56 0 56 31 56 l30 0 -3 -52z"/>
<path d="M771 976 c-7 -8 -11 -37 -9 -67 3 -53 3 -53 42 -61 28 -6 43 -5 52 4
15 16 24 101 12 122 -11 20 -81 22 -97 2z m74 -61 c0 -48 -1 -49 -30 -50 -28
0 -30 3 -33 39 -5 54 3 68 35 64 26 -3 28 -6 28 -53z"/>
</g>
</svg>
